<svg xmlns="http://www.w3.org/2000/svg" viewBox="0 0 260 178" role="img" aria-label="가톨릭대학교 로고">
  <path fill="#163f9a" d="M7 35C39 14 80 4 130 4s91 10 123 31c4 3 6 7 6 12v84c0 5-3 10-8 12-32 20-72 31-121 31s-89-11-121-31c-5-2-8-7-8-12V47c0-5 2-9 6-12Z"/>
  <path fill="none" stroke="#fff" stroke-width="5" d="M12 40c31-19 70-29 118-29s87 10 118 29c2 1 3 4 3 7v82c0 3-2 6-5 7-30 19-69 29-116 29s-86-10-116-29c-3-1-5-4-5-7V47c0-3 1-6 3-7Z"/>
  <path fill="#fff" d="M30 51h58v48H30zM108 51h124v15H108zM108 76h124v10H108zM108 94h124v10H108zM30 111h126v12H30zM82 132h150v15H82z"/>
  <path fill="#163f9a" d="M130 66h93v5h-93zM130 82h93v5h-93zM130 97h93v5h-93zM39 118h111v5H39zM92 138h131v5H92z"/>
  <text x="130" y="38" fill="#fff" font-family="Arial, sans-serif" font-size="18" font-weight="700" letter-spacing="10" text-anchor="middle">CATHOLIC</text>
  <text x="130" y="158" fill="#fff" font-family="Arial, sans-serif" font-size="17" font-style="italic" font-weight="700" text-anchor="middle">UNIVERSITY OF KOREA</text>
</svg>
